<svg id="Layer_1" data-name="Layer 1" xmlns="http://www.w3.org/2000/svg" viewBox="0 0 7250 1366"><defs><style>.cls-1{fill:#fdfdfd;}.cls-2{fill:#1f1f5a;}.cls-3{fill:#1f1f59;}.cls-4{fill:#20205a;}.cls-5{fill:#757595;}.cls-6{fill:#d1d1db;}.cls-7{fill:#ababbf;}.cls-8{fill:#fff;}.cls-9{fill:#fefeff;}.cls-10{fill:#21215b;}.cls-11{fill:#f8f8fa;}</style></defs><title>s&amp;amp;c_LOGO_BROKER</title><path class="cls-1" d="M3933,1081H-3317V-285H3933V1081Z" transform="translate(3317 285)"/><path class="cls-2" d="M-2641.74,939.58h-541c-12.45,0-12.45,0-12.45-12.89q0-531,0-1061.93c0-14.4-2.15-12.69,12.67-12.69q541.46,0,1082.92,0c14.71,0,12.48-1.43,12.48,13q0.06,531,0,1061.93c0,14.33,2.23,12.6-12.73,12.61Q-2370.76,939.61-2641.74,939.58Z" transform="translate(3317 285)"/><path class="cls-2" d="M1156.19,285.08c23.11-27.81,43.2-56.59,51.58-92,1.92-8.11,3.59-16.26,3.56-24.65-0.06-15.1-7.51-25.31-22-29.53-12.86-3.74-26.22-4.57-39.46-5.87-11.78-1.16-11.79-1-11.8-12.81,0-4.33.16-8.67,0-13s1.88-6,6-5.67c2,0.15,4,0,6,0q86,0,172,0a122.92,122.92,0,0,1,15,.8c8,1,9.75,3,10.17,10.77,1,18.28.71,18.49-17.41,19.77-19.38,1.37-35.93,9.15-49.81,22.7a115.39,115.39,0,0,0-21.38,28.77c-21.35,40.34-45.39,79.12-68.72,118.32-5.59,9.39-6.66,6.51,2,15.56,14.41,15.12,30.27,28.45,51.31,33.07,40.29,8.86,62.31-8.27,75-33.84a199.43,199.43,0,0,0,12.27-32.66c1.28-4.35,2.91-6,7.68-5,6.82,1.44,13.81,2.17,20.75,2.95,3.64,0.41,4.29,2.2,3.7,5.41-4.11,22.37-9.36,44.48-21.6,64-26,41.4-63.38,62.68-112.75,60.7-19.63-.79-37.59-8.2-54.91-17-14.58-7.42-28.22-16.36-41.5-25.88-6.59-4.73-6.66-4.77-13.66-.07-19.65,13.2-39.6,25.84-61.93,34.2-45,16.87-90.58,18-136,2.61-62.67-21.16-103.71-83.42-99.68-149.39,2.54-41.66,19.37-76.49,50.41-104.13,22.17-19.74,46.81-36.33,71.41-52.87,5.87-3.94,6.1-3.7,3.83-11-5.94-19.05-12.17-38-17.87-57.14-6.43-21.55-9.26-43.49-7.51-66.1,4.27-54.92,44.92-101.73,98.92-112.86a147.2,147.2,0,0,1,77.87,4.73c69.87,23.56,93.45,107,46.7,164.73a132.3,132.3,0,0,1-28.52,26.4c-23.94,16.24-47,33.91-73.73,45.72-6.64,2.94-6.59,3.29-2.26,10.08q33.07,51.79,66.21,103.53,21.8,34.09,43.63,68.16C1151.28,279.39,1152.49,282.64,1156.19,285.08Z" transform="translate(3317 285)"/><path class="cls-2" d="M-1956.39,305q0-48,0-96c0-8.85.1-9.14,8.64-8.89,6.22,0.18,13.54-2.64,18.38,1.48,4.38,3.73,4.06,11,5.62,16.73,5.51,20.26,11.47,40.35,20.71,59.29,20.27,41.54,49.76,74,93.1,92,41,17.05,83.09,18.3,125.17,5.26,50.11-15.53,80-66.88,69.77-117.79-4.52-22.4-17.33-39.37-35.84-52.2a111.61,111.61,0,0,0-35.24-16.14C-1728.51,177.52-1771,166.4-1813.4,155c-26.78-7.23-52.68-16.77-76-32.14-24.66-16.24-43.07-37.46-52.11-66.12-21.87-69.32,10.94-152.32,73.37-184.93,27.86-14.55,57.94-19.11,89-18.88,46.94,0.35,89,14.75,125.77,44,6.5,5.17,7.17,5.21,12.73-1.35,3.42-4,6.17-8.66,9.14-13.07s5.63-9.06,8.84-13.3c6.44-8.5,15.23-11.43,25.64-9.94,7.5,1.07,8,1.57,8.38,9.36,1.11,20.63,2.29,41.26,3.25,61.89q2.6,56.42,5,112.86c0.38,8.64.35,8.65-8.08,10.07-13.77,2.33-21.41-1.57-27.26-14.31-2.07-4.52-3.53-9.33-5.2-14-10.45-29.39-24.4-57-43.73-81.51-36.17-46-83.79-62.35-140.88-53.52-11.22,1.74-22.2,4.32-32.62,9C-1876.8-83.61-1896.5-44.26-1887.12-3c4.87,21.41,17.75,36.88,36.13,48.19,11.73,7.22,24.64,11.67,37.62,15.92C-1773.82,74-1733.3,83.61-1693.31,95c19.21,5.48,38.45,10.75,56.43,19.78,61,30.66,88,89.69,80.74,152.88-2.32,20.34-7.08,40-15.78,58.54-19.26,41-51.2,68-94.28,80.52-59.67,17.35-118.53,13.82-175.59-11.67-15.89-7.1-30.34-16.64-43.92-27.52-6.52-5.22-7.12-5.19-13,.79-4.22,4.32-7.31,9.47-10.4,14.62s-6.15,10.3-9.55,15.22c-7.65,11.08-18.5,14.45-31.47,12.8-4.41-.56-6.75-2.27-6.32-7,0.18-2,0-4,0-6Q-1956.39,351.53-1956.39,305Z" transform="translate(3317 285)"/><path class="cls-2" d="M1879.15-143.3V62.79a28,28,0,0,0,0,4c0.7,4.79-1.63,6.72-6.12,6.83a14.89,14.89,0,0,0-1.94.47c-21.6,3.58-22.29.29-28.25-15.81-8-21.53-15-43.39-23.86-64.61-11-26.4-24.73-50.85-46.47-70.17-45.45-40.4-110.55-45.7-160.65-20.64a106.33,106.33,0,0,0-48.17,47.72c-19.59,38.31-31.58,78.94-36.94,121.66-4.58,36.48-6.67,73-3.74,109.68s8.69,72.75,21.79,107.29c21.34,56.24,63.27,85.18,122.09,91.92,23.82,2.73,47.27,1.8,70.25-5.08,43.92-13.15,73.88-42.34,93.66-82.83,9.38-19.2,15.19-39.76,21.92-60,1.16-3.47,2.65-6.89,3.3-10.45,1-5.66,4.32-6.79,9.29-5.69,1.95,0.43,4,.47,5.9,1,5.67,1.56,13.48-1,16.77,4.07,3.12,4.81-.24,11.65-1.08,17.52-12.73,89.39-75.69,156-161.09,173.3-100.29,20.37-249.73-27.12-290.32-185.2C1417.36,157,1419.47,86.21,1449,18.24,1474.75-41.2,1515.06-88.6,1572.48-120a217.22,217.22,0,0,1,101.38-26.88q67.22-1.27,121.38,38.86c4.78,3.54,9.52,9.76,14.95,9,5.68-.84,6.92-9,10.4-13.77,1.57-2.14,2.88-4.48,4.25-6.76,7.15-11.87,17.4-19,31.31-20.65C1863.41-141.13,1870.65-142.17,1879.15-143.3Z" transform="translate(3317 285)"/><path class="cls-2" d="M-1372.84,57.59v48.16c6-4.59,9.3-9.42,12.95-13.94,16.54-20.5,36.88-35.59,62.48-42.66,34.64-9.57,66.71-2.82,96,17.09,36.46,24.74,60.86,58.48,71.28,101.4,11.48,47.28,10.51,94.6-5.1,140.84-14.08,41.69-40.27,74.15-79.74,94.58-32.48,16.8-66.48,17-101,6.61-10.16-3.07-18.38-9.35-25.79-16.62-7.61-7.46-14.76-15.37-22.21-23-2.25-2.3-3.73-5.51-7.19-6.61-2.52,2.18-1.28,5-1.28,7.47q-0.14,63.47-.07,126.94a55.19,55.19,0,0,0,.86,10.92c2,9.91,8,15.73,17.54,18.39,10.4,2.92,21.17,2.09,31.76,3,13.29,1.12,13.31.91,13.25,14.6,0,1.33-.1,2.67,0,4,0.36,4.05-.94,6.43-5.51,6-1.65-.17-3.33,0-5,0h-169.92c-1.67,0-3.34-.13-5,0-4.09.37-5.83-1.2-6.3-5.51-1.95-17.64-2.09-17.59,15.69-18.65,6.65-.4,13.3-0.88,19.92-1.58,14.82-1.56,22.18-9.24,22.34-24.24,0.25-23-.05-46,0-69q0.06-152.43.15-304.85c0-4,.08-8-0.28-12-1.23-13.35-9.2-21.33-22.64-22-9.64-.5-19.32-0.32-29-0.15-4.27.07-6-1.42-5.88-5.77,0.22-6.32.29-12.67,0-19-0.25-5,1.37-6.94,6.67-7.19,18.63-.87,37.23-2.33,55.85-3.46C-1416.72,60-1395.47,58.88-1372.84,57.59Z" transform="translate(3317 285)"/><path class="cls-2" d="M-567.91,111.81c6.58-7.69,12.32-14.6,18.28-21.32,13.16-14.84,27.94-27.76,46.1-36.13,39.68-18.29,79.19-16.25,117.2,4.08,28.83,15.42,44,41.71,51.22,72.92,4.49,19.34,4,39,4.08,58.69q0.18,78,.19,156a90,90,0,0,0,1.12,13.92c1.39,8.82,6.59,13.29,15,15.14,11.13,2.45,22.55,2,33.76,3.63,7.46,1.11,7.5.85,7.65,8.16,0.33,16,.33,16-15.5,16h-159c-2.67,0-5.33,0-8,0-2.46,0-3.66-1.29-3.68-3.64,0-5.33-.07-10.66,0-16,0.05-3.75,2.87-3.81,5.6-4.06q11.44-1.05,22.87-2.26c4.64-.5,9.32-0.86,13.86-1.81,10-2.1,15.5-8.59,16.09-18.87,0.33-5.65.24-11.33,0.24-17,0-54.32.64-108.65-.48-163-0.25-12-.81-24-3.73-35.7-10-40.21-48.14-62.27-87.89-50.17-31,9.44-52.4,29.63-62.9,60.56-6.78,20-10.19,40.62-11.34,61.69-2.42,44.63-1.23,89.28-.84,133.92a106.76,106.76,0,0,0,.76,11c1.21,10.79,5.22,15.63,16,17.34,11.83,1.88,23.78,3.07,35.73,4,4.66,0.37,6.15,1.82,6.3,6.55,0.56,17.62.74,17.62-16.94,17.62h-158c-2,0-4-.16-6,0-4.12.38-5.82-1.21-6.35-5.49-2.11-16.9-2.23-17,14.83-19.13,6.27-.78,12.6-1.13,18.9-1.69,16.81-1.5,24-8.92,24.06-25.66q0.07-115.49-.16-231a54.17,54.17,0,0,0-.7-9c-1.5-8.83-6.64-14.28-15.5-16.13a78.89,78.89,0,0,0-16.84-2c-6,0-12-.11-18,0.15-4,.17-6.3-0.69-6.11-5.37,0.27-6.66.28-13.34,0-20-0.21-5,2.32-6.2,6.66-6.42,10.65-.53,21.28-1.37,31.92-2q40.4-2.55,80.81-5.06c7.32-.46,7.39-0.48,7.43,7.37,0.06,13.33,0,26.66,0,40C-569.13,104.52-569.74,107.5-567.91,111.81Z" transform="translate(3317 285)"/><path class="cls-2" d="M2335.58,363.81c-4.72,13.4-10,25.6-23.23,33.42-33.3,19.64-68.35,14.16-93.21-15.46-5.58-6.65-10.06-14-14.61-22.31-4.71,4.42-8.92,8.47-13.23,12.4-22.09,20.14-47.19,34.72-76.89,40.14-29.26,5.34-58.53,4.58-87.09-3.76-64.79-18.91-83.7-97.94-34.72-144.33,18.65-17.66,41.15-29.23,64.64-39,32.08-13.35,65.7-21.55,99.29-29.89,12.91-3.2,25.76-6.68,38.72-9.68,4.14-1,5.27-2.7,4.87-6.87-1.71-17.89-2.18-35.9-5.1-53.69-1.41-8.59-3.33-17-7.93-24.53-7.58-12.43-18.44-19.67-33.07-21.42a249.48,249.48,0,0,0-75.61,2.06,46.33,46.33,0,0,0-13.22,4.36c-8.31,4.37-11.38,10.73-9.5,19.86,1.42,6.89,4.35,13.25,7.2,19.64,3.55,8,6.28,16.26,5.46,25.1-1.18,12.65-8.11,21.58-19.23,27.33-15.87,8.21-36.72,5.61-49.47-6-14.17-12.95-19.51-33-11.67-50.17,11.56-25.37,27.89-46.53,54-59.27,51.89-25.34,105-26.52,159.35-10,2.54,0.78,5,1.76,7.56,2.56,31.78,10,49.28,32.43,56.08,64.22,4.93,23,4,46.4,4.12,69.69,0.22,42.32.09,84.64,0,127a106.93,106.93,0,0,0,3.1,27.72c4.4,16.57,12,22.23,29,20.3C2312.57,361.92,2323.7,361.16,2335.58,363.81Z" transform="translate(3317 285)"/><path class="cls-2" d="M299.55,236.66q-54.48,0-109,0c-10,0-10.41,0-11.19,9.27-3.49,41.15,8.36,77.26,37.79,106.44,24.09,23.87,69.86,38,110.6,12.55,18.87-11.8,34.63-27,49.21-43.55,5.5-6.25,10.82-12.67,15.9-19.27,2.56-3.33,5-4,8.34-1.52a19.53,19.53,0,0,0,2.65,1.39c14.94,7.73,15.2,7.84,8.59,23.75C396.95,363.13,368.93,388,332.43,404c-67.47,29.5-173.65,11-216.48-78.81C99.53,290.73,95.74,254.34,99.8,216.94c2.77-25.58,8.59-50.55,19.4-74.06,19.41-42.23,49.08-74.38,93.1-91.32C276,27.06,346.79,50,385.4,107.92c24.37,36.53,34.73,77.4,34,121.16-0.13,7.44-.34,7.55-7.88,7.55Q355.53,236.7,299.55,236.66Z" transform="translate(3317 285)"/><path class="cls-2" d="M3221.87,237q-56,0-112,0c-9.72,0-8.68,0-9.46,8.48-2.94,32,4.08,61.55,21.31,88.61,14.64,23,36,35.61,62.5,40.88,41.63,8.28,75.26-5.56,103.16-36.11a189.3,189.3,0,0,0,25.73-35.55c2.62-4.7,5-5.42,9.35-2.57,3.33,2.18,7.06,3.73,10.56,5.64,6.4,3.49,6.55,3.58,3.84,10.61-16.65,43.09-46.11,74.28-89.64,89.63-54,19.05-106.56,12.95-155.17-17.56-35.69-22.39-55.83-56.37-65.65-96.73-15.57-64-4.9-123.9,30.55-178.82,24.18-37.46,58.84-61.58,103.4-68.82,57.63-9.37,105.07,9.19,141.1,55.34,19.93,25.54,30.6,55.17,35.31,87,2.15,14.48,3,29.15,4.74,43.7,0.58,4.83-.65,6.93-5.67,6.35a53,53,0,0,0-6,0h-108Z" transform="translate(3317 285)"/><path class="cls-2" d="M-867.12,236.82q-55,0-110,0c-9.3,0-9.29.06-10.16,9-3.13,32,4.42,61.39,21.85,88.37,16.29,25.22,40.15,38,69.06,42.88,27,4.51,50.66-2.6,71.85-19.57,16.71-13.39,31.05-29.19,46.11-44.28,1.41-1.41,2.75-2.91,4.17-4.31,9-8.89,8.86-8.66,19.79-2.82,4.66,2.49,5.86,4.76,4.06,10.1-10.63,31.62-30.59,55.78-58,74.07-91.34,60.85-237.26,15.88-256.79-113.71-7.66-50.85,0-99.76,23.9-145.37,21.81-41.59,54.66-71.18,100.64-83.93,62.24-17.26,126.81,8.4,162,64.16C-756,147.33-746.52,187-747.12,229.32c-0.1,7.35-.3,7.47-8,7.48Q-811.13,236.87-867.12,236.82Z" transform="translate(3317 285)"/><path class="cls-2" d="M-156.56,220.09c1.78,38.36,6.17,68.54,19.56,96.78,4.43,9.35,9.3,18.42,16,26.43C-93.92,375.91-48.69,381.7-14.25,357a92.09,92.09,0,0,0,25-26.92c5.74-9.37,11.3-18.86,16.56-28.5,2.32-4.25,4.59-6,9.4-3.59,5.36,2.63,11,4.72,16.61,6.83,3,1.14,4.36,2.52,2.88,5.91-10.43,23.84-21.26,47.4-38.71,67.23-19,21.54-43.3,32.33-71.09,37.1-85,14.62-147.29-39.24-169-105.23-20.26-61.73-16.05-122.39,13.81-180.23C-184.9,83.38-146.92,54-95.55,44.31c37.77-7.1,73.79.58,106.41,20.74,30.37,18.77,42.82,52.34,33.56,86.76-4.17,15.48-12.68,28-29.83,29.67-20.9,2-38.6-6.24-51.75-22.54-7-8.72-6.19-19.34-2.94-29.62a62.64,62.64,0,0,1,7-14.34,58.54,58.54,0,0,0,6.29-12.44c3.76-11.24.77-19-10.39-23.23-18.46-7-37.12-7.17-55.44.89C-107.87,86.88-119,98.15-127.59,112A189.27,189.27,0,0,0-153,179.9C-155.71,195.69-156.77,211.63-156.56,220.09Z" transform="translate(3317 285)"/><path class="cls-2" d="M2844.66,207.7q0,46.48,0,93c0,13.69.82,27.31,4,40.65,4.8,19.89,15.5,28.83,35.64,30.06,23.37,1.43,37.53-6.78,46.38-28.29a242,242,0,0,0,16.88-62.43c1.48-11.89-.2-10,11.17-9.89,20.08,0.27,16.94-4.16,19.47,17.09,7.69,64.54-33.48,115.22-88.41,126.2-22.42,4.48-44.54,2.93-65.79-5.44-26.4-10.4-41.77-29.95-45.33-58.31a607.41,607.41,0,0,1-4.24-72.78q-0.36-75.46-.39-150.92c0-11,0-22,.44-33,0.2-5.17-1.48-7-6.77-6.9-15,.29-30,0.14-45,0.08-8.59,0-8.76-.09-8.65-8.8,0.07-5.94-2.19-12.85,1.15-17.55,3.11-4.37,10.27-3.68,15.59-5.39,30.85-9.88,52-30,64.25-59.85,8.28-20.17,12.29-41.4,15.91-62.74,1.28-7.55,2.69-15.07,3.77-22.65,0.47-3.3,2-4.72,5.21-4.49,0.33,0,.67,0,1,0,7.2,0.63,16.21-3.06,21.11,1.72,4.07,4,1.15,12.7,1.17,19.31,0.11,38.65.05,77.3,0.05,115.95,0,2.33.17,4.68,0,7-0.4,4.55,1.91,5.85,6,5.55,2.32-.17,4.66,0,7,0q44.48,0,89,0c7.46,0,7.51.14,7.58,7.77,0.06,6.33,0,12.66,0,19,0,2.93-1.33,4.27-4.2,4.27-2.33,0-4.66.05-7,.05q-43.48,0-87,0c-8.7,0-9.08.1-9.43,8.79-0.51,12.64-.52,25.31-0.55,38C2844.6,157.72,2844.66,182.71,2844.66,207.7Z" transform="translate(3317 285)"/><path class="cls-2" d="M2597.51,78.84c-25.22,5.07-44.49,15.65-54.32,38.43-16.5,38.23-31.16,77.14-39.13,118.22-3.76,19.36-5.05,39-5.2,58.64q-0.19,26.49-.14,53a57.73,57.73,0,0,0,1.14,11.89c1.51,7,5.85,11.79,12.74,14.14,6.68,2.28,13.6,3.18,20.57,3.77,8.63,0.73,17.26,1.54,25.91,2,4,0.2,5.79,1.21,6,5.72,1.06,19.35,1.22,19.34-18.26,19.34q-76.48,0-153,0c-6,0-12-.64-18-0.71-4.12,0-5.68-1.61-5.95-5.9-1-16.83-1.2-16.87,15.73-19,7.93-1,15.93-1.47,23.81-2.73,12.16-1.95,17.43-7.71,18.73-19.78a74.71,74.71,0,0,0,.17-8q0-111.48,0-223c0-1.67,0-3.33,0-5-0.58-17.87-8.59-26-26.67-26.56-9.65-.3-19.33-0.23-29,0-4.28.12-6-1.15-5.81-5.59,0.28-6.65.3-13.34,0-20-0.22-4.77,1.63-6.31,6.31-6.55,21.63-1.12,43.23-2.61,64.85-3.89,19.28-1.14,38.57-2.2,57.74-3.28,2.12,2.9,1.27,6,1.28,8.91,0.08,19.66,0,39.33,0,59,0,2-.07,4,0,6,0.1,2.21-.57,4.93,2.79,5.45,2.68,0.42,3.24-1.89,4.13-3.54,4.44-8.19,8.61-16.54,13.22-24.64,7.62-13.38,16.57-25.82,28-36.26,21.18-19.38,45.77-29.66,74.82-26.11,41,5,67.76,45.27,46.05,89-7,14.11-18.76,19.74-34.64,18.12a77,77,0,0,1-22.28-5.18c-18.86-7.93-26.31-22.91-21.37-42.84C2589.74,94.43,2593.2,87.59,2597.51,78.84Z" transform="translate(3317 285)"/><path class="cls-2" d="M3521,134c4.7-7.58,9.43-15.13,14.1-22.73,8.38-13.64,17.1-27,28.26-38.63,20-20.74,43.55-32.35,73.14-29.65,30.41,2.78,52.12,21.09,57.5,49.43a55,55,0,0,1-7.16,39.4A43.87,43.87,0,0,1,3632,149.51c-18.92-8-28.44-29.54-22.21-51,1.83-6.31,4.72-12.31,7.21-18.7-4.14-1.32-7.45.81-10.72,1.94-19,6.6-33.25,19.23-43.79,36.16-14.92,24-24.88,50-31.53,77.3A431.73,431.73,0,0,0,3519,293.15c-0.18,17.66-.17,35.32-0.14,53,0,19.34,8.68,28.76,28.07,30.48,10.61,0.94,21.24,1.75,31.88,2.23,4.49,0.2,6.3,1.42,6.47,6.34,0.61,17.82.82,17.81-16.67,17.81H3403.69a47.74,47.74,0,0,0-6,0c-5.47.7-6.57-2-6.63-6.93-0.21-15.71-.4-15.73,14.95-17.68,4.62-.59,9.26-1.31,13.9-1.44,25.2-.71,29.74-11,29.56-31.59-0.43-49.31-.14-98.62-0.14-147.93q0-34,0-68c0-3.66,0-7.34-.21-11-0.93-15.81-9.35-24.45-25.26-25.21-10-.48-20-0.27-30-0.08-4.2.08-6.05-1.22-5.89-5.64,0.25-6.65.22-13.33,0-20-0.13-4.24,1.6-6,5.79-6.17,9.65-.45,19.28-1.19,28.92-1.79,30.25-1.89,60.51-3.66,90.75-5.76,4.85-.34,5.58,1.62,5.57,5.63-0.1,21.32,0,42.65,0,64q0,4.91,0,9.81Z" transform="translate(3317 285)"/><path class="cls-2" d="M696,79.55c-19.79,2.52-33.69,11.57-44.72,25.25C632.8,127.7,621,154,613,182.1c-6.83,24.14-9.87,48.9-11.83,73.81-2.3,29.24-2.56,58.56-2.86,87.87-0.24,23.17,4.22,28.59,27.38,32,10.85,1.58,21.85,2.33,32.81,3,4.71,0.27,6.59,1.8,6.2,6.57a80.51,80.51,0,0,0,0,12c0.3,4.5-1.76,5.75-5.91,5.64-8-.2-16-0.06-24-0.06H481.9c-2.33,0-4.67-.1-7,0-3.35.16-4.94-1.35-4.82-4.68a9.15,9.15,0,0,0,0-1c-1.3-17.36-1.3-17.39,15.74-19.38,7.27-.85,14.59-1.08,21.81-2.55,13.87-2.81,18.23-7.13,19.77-21a172.19,172.19,0,0,0,1.1-18.93q0.07-103.94-.11-207.87a115.07,115.07,0,0,0-1.41-15.9c-1.32-9.28-6.64-14.79-16-16.76-9.56-2-19.21-1.72-28.85-2C467,92.44,467,92.46,467,77.72c0-16.08,0-15.86,16.42-16.82q52.36-3.07,104.7-6.61c9-.61,9.5-2.61,9.47,9.24-0.06,20.32,0,40.64,0,61q0,4.3,0,8.61c3.94,0.07,4.21-2.82,5.34-4.56,8.18-12.55,16-25.35,24.36-37.77a129.09,129.09,0,0,1,29.94-31.93c24.06-17.86,50.4-21.43,78.5-11.92,36.45,12.34,47.47,56.37,29.73,84.86a44.13,44.13,0,0,1-56.09,16.53c-18.37-8.75-27.11-31.12-20.12-52C691,91.06,693.39,86,696,79.55Z" transform="translate(3317 285)"/><path class="cls-3" d="M932.91,932.85c-32.32.13-64.64,0.18-97,.48-5,0-5.34-2.68-5-6.31,0.29-3.3-1.53-7.81,4.68-7.73a114.22,114.22,0,0,0,16-.53c8.88-1.15,10.83-5.17,6.6-12.94-1.75-3.21-3.87-6.22-5.93-9.25q-22.19-32.65-44.43-65.26c-1.67-2.45-3.48-4.81-5.28-7.28-11.19,10.93-22.07,21.6-33,32.22-1.83,1.79-2.26,3.91-2.25,6.35,0.05,14.66-.15,29.33.12,44,0.16,8.88,3.06,11.67,12.2,12.39,5.31,0.42,10.66.39,16,.33s4.46,3.85,4.49,7,1.05,7-4.41,7c-7.66-.11-15.33,0-23,0-21.33,0-42.66,0-64,0-6.31,0-9.88-6.43-6.87-12.08,0.93-1.75,2.6-1.8,4.28-1.83,5-.08,10,0,15-0.3,9.9-.67,12.29-3.11,13-12.69,0.1-1.33.09-2.66,0.09-4q0-77.49,0-155a44.22,44.22,0,0,0-.32-6c-1-7-3-9.31-10.12-10.11a114.54,114.54,0,0,0-17-.49c-5.74.22-5.31-3.39-5.39-7.2-0.09-4,0-7,5.61-6.93,29.33,0.22,58.66.18,88,0,4.94,0,5.42,2.64,5.13,6.34-0.26,3.39,1.25,7.8-4.84,7.71a158.58,158.58,0,0,0-16,.35c-9,.76-11.84,3.6-11.89,12.68-0.18,29.62-.07,59.24-0.07,88.79,3.44,1.13,4.41-1.65,5.88-3.12q33.91-34,67.67-68.08c4.7-4.74,9.25-9.64,12.44-15.57,4.21-7.84,1.95-12.92-6.76-14.44a65.53,65.53,0,0,0-13-.59c-6.23.17-4.54-4.29-4.78-7.63-0.26-3.51-.31-6.47,4.88-6.43,27.33,0.18,54.66.12,82,0,3.66,0,6,1,5.23,5-0.61,3.35,2.54,8.53-4.33,9.07-19,1.49-33.82,11-46.8,24.25s-26.23,26.56-39.58,39.6c-3.46,3.38-4.08,5.77-1.09,10q35.82,51.17,71.16,102.67c4.58,6.64,10.21,11.38,18.63,11.85,2.14,1.2,4.49.72,6.76,0.8C935.81,920.36,937.2,922.81,932.91,932.85Z" transform="translate(3317 285)"/><path class="cls-3" d="M379,826.93c16.24,6.2,25.76,18.39,30.44,34.66,3.4,11.83,6.3,23.79,9.59,35.65a89,89,0,0,0,4.31,12.21c1.57,3.54,4.37,5.77,8.6,5.72s6.86-2.37,8.58-5.84a43.16,43.16,0,0,0,4-17.42c0.29-6.79,1.57-6.52,8.21-6.58,6.49-.06,4.26,4.7,4.17,7.84a67,67,0,0,1-5.82,26.14c-5.76,12.58-15.88,18.12-29.48,18.41-14.16.3-25.52-4.22-32.21-17.44-5.85-11.55-7.06-24.21-8.19-36.81-0.78-8.64-1.63-17.25-4.07-25.6-5.59-19.09-17.23-28.44-36.94-29-7.51-.21-15.16-1.64-22.58,1-1.55,6.89-.57,13.87-0.64,20.8-0.17,17.66-.12,35.33,0,53,0.06,12.51,2.51,14.92,15.28,15.47,3,0.13,6,.08,9,0.14,8.44,0.15,8.24.17,8.27,8.22,0,4.16-1.13,5.84-5.58,5.81q-43.49-.23-87,0c-5.26,0-6-2.24-5.89-6.63s-0.22-8.07,6.1-7.53a83.69,83.69,0,0,0,15-.31c8.61-.82,11-3.39,11.17-12.06,0.2-7.66.07-15.33,0.07-23q0-66.49,0-133c0-2.33,0-4.67,0-7-0.31-9.66-2.64-12.12-12.55-12.87-4-.3-8-0.18-12-0.28-7.79-.19-7.81-0.23-7.66-7.77,0.12-6.06.12-6.13,8.14-6.17,13.66-.06,27.33,0,41,0h57c15.1,0,29.93,1.78,44,7.43,18.37,7.36,30.66,19.91,32.75,40.36,2,19.47-4.26,35.44-21.29,46.25-10.88,6.9-23.09,10.12-35.59,12.45-1.45,1-2.88,1.32-4.27-.07C374.61,824.94,377.19,825.35,379,826.93Z" transform="translate(3317 285)"/><path class="cls-3" d="M171.36,820.1c9.32,3.15,18.19,4.79,26.39,8.6,15.68,7.29,26.81,18.07,29.94,35.93,3.83,21.81-4.71,42.26-23.31,54.42A83.41,83.41,0,0,1,160,932.61c-39.28.81-78.59,0.4-117.88,0.74-5.71,0-5.49-3.08-5.43-6.94s-0.56-7.56,5.3-7.17a107.64,107.64,0,0,0,13-.15c11.4-.63,14-3.22,14-14.62,0.1-28.64,0-57.28,0-85.92,0-24,0-48,0-71.94,0-12.72-2.45-15.18-15-15.76-3.32-.15-6.66-0.08-10-0.16-6.51-.16-9.85-5.83-7.15-12,0.83-1.91,2.47-1.92,4.1-1.91,40,0.29,79.94-1,119.87.77,10.93,0.49,21.45,4,31.44,9,31.85,16,32.93,64,4.1,82.48C188.87,813.92,180.43,816.71,171.36,820.1Z" transform="translate(3317 285)"/><path class="cls-3" d="M1279,827c16.65,7.11,25.85,20.32,30.4,37.29,3,11.25,5.94,22.52,9,33.76a74.54,74.54,0,0,0,3.07,9.49c1.74,4.13,4.18,7.62,9.45,7.56,5.73-.06,8.12-4,9.82-8.5a51.27,51.27,0,0,0,2.76-15.69c0.16-3.25,1-5.56,5.2-5.71,7.24-.26,8.06.29,7.36,7.61-0.82,8.63-1.83,17.23-5.34,25.3-5.67,13-15.64,19.23-29.77,19.56-14.56.34-26.16-4.26-32.81-18.05-4.4-9.14-6.11-18.94-7.15-28.92s-1.59-19.93-3.93-29.68c-5.18-21.63-17.46-31.69-39.52-32.31-5-.14-10,0.22-15-0.16-5.25-.4-7,1.5-6.86,6.79,0.31,15,.11,30,0.11,45,0,7.67-.12,15.33,0,23,0.25,12.85,2.56,15.22,15.12,15.78,4.33,0.19,8.67.28,13,.15,6.17-.18,4.51,4.3,4.79,7.67,0.31,3.69-.1,6.41-5,6.36-19-.17-38-0.06-57-0.06-10.33,0-20.67-.26-31,0.09-5.76.2-5.39-3.21-5.4-7s-0.2-7.38,5.49-7.11a104.23,104.23,0,0,0,16-.41c7.87-.83,10.29-3.65,10.86-11.61,0.17-2.32.08-4.66,0.08-7q0-75,0-150c0-1.33,0-2.67,0-4-0.21-12.11-2.63-14.72-14.52-15.33-4.32-.22-8.67-0.29-13-0.17-6.08.16-4.63-4.24-4.84-7.65s-0.2-6.48,5-6.4c15.66,0.24,31.33.08,47,.08,18.33,0,36.66,0,55,0,15.79,0,31.28,2.1,45.82,8.58,14.37,6.41,25.24,16.4,28.71,32.38,5.61,25.87-4.07,45.08-24.42,55.63-9.58,5-19.9,7.47-30.27,9.92a3.41,3.41,0,0,1-3.95.39C1274.56,824.8,1277.16,825.29,1279,827Z" transform="translate(3317 285)"/><path class="cls-3" d="M-1023,827c16.65,7.11,25.85,20.32,30.4,37.29,3,11.25,5.94,22.52,9,33.76a74.42,74.42,0,0,0,3.07,9.49c1.74,4.13,4.18,7.62,9.45,7.56,5.73-.06,8.12-4,9.82-8.5A51.22,51.22,0,0,0-958.53,891c0.16-3.25,1-5.56,5.2-5.71,7.24-.26,8.06.29,7.36,7.61-0.83,8.63-1.83,17.23-5.34,25.3-5.67,13-15.64,19.23-29.77,19.56-14.56.34-26.16-4.26-32.8-18.05-4.4-9.13-6.11-18.94-7.15-28.92s-1.59-19.93-3.93-29.68c-5.18-21.63-17.46-31.69-39.52-32.32-5-.14-10,0.22-15-0.16-5.24-.4-7,1.49-6.86,6.79,0.31,15,.1,30,0.11,45,0,7.67-.12,15.33,0,23,0.25,12.84,2.57,15.22,15.12,15.78,4.33,0.19,8.67.28,13,.15,6.17-.19,4.51,4.3,4.79,7.67,0.31,3.68-.1,6.41-5,6.36-19-.17-38-0.06-57-0.06-10.33,0-20.67-.26-31,0.09-5.76.2-5.4-3.21-5.4-7s-0.21-7.39,5.49-7.11a104.26,104.26,0,0,0,16-.41c7.87-.83,10.29-3.65,10.86-11.61,0.17-2.32.08-4.66,0.08-7q0-75,0-150c0-1.33,0-2.67,0-4-0.21-12.11-2.63-14.72-14.52-15.33-4.32-.22-8.67-0.29-13-0.17-6.07.16-4.63-4.24-4.84-7.65s-0.2-6.48,5-6.4c15.66,0.24,31.33.08,47,.08,18.33,0,36.66,0,55,0,15.79,0,31.28,2.1,45.82,8.58,14.37,6.41,25.24,16.4,28.71,32.38,5.61,25.86-4.07,45.08-24.42,55.63-9.58,5-19.9,7.47-30.27,9.92-1.51,1-3,1.18-3.33.9C-1027.44,824.81-1024.84,825.29-1023,827Z" transform="translate(3317 285)"/><path class="cls-3" d="M-540.84,874.24c2.25-3.29,1.47-5.65,1.48-7.85,0.06-28.66,0-57.33.06-86a173.82,173.82,0,0,0-1.58-23.92c-2.26-16.53-9-23.16-25.65-25.49-2.4-.33-6,1.08-6.71-2.55a21.36,21.36,0,0,1,.06-9.86c0.95-3.17,4.57-1.78,7-1.79,23.33-.1,46.66-0.06,70-0.06,1,0,2,.1,3,0,4.49-.45,4.93,2.47,4.47,5.68s2.24,7.91-3.94,8.38c-0.33,0-.67,0-1,0.06-20.95,3.16-26.71,8.93-28.86,30a229.33,229.33,0,0,0-.69,23q-0.09,70,0,140a47.1,47.1,0,0,1-.05,6c-0.32,2.44,1.49,6.18-1.81,7-4,1-8.61,2.15-12.2-1.43a47,47,0,0,1-4.25-5.54L-660.34,769.1c-2.34-3.16-4.73-6.29-7.12-9.47-3.08,1.71-1.81,4.32-1.82,6.37q-0.11,54.5,0,109c0,6.65,0,13.32,1.35,19.91,3.34,16.45,9.11,21.89,25.87,24.08,7,0.91,7,.91,6.94,7.69,0,6.34,0,6.52-6.75,6.54-24,.08-48,0-72,0.05-3.9,0-7.12.16-7-5.56,0.23-7.54,0-7.79,6.06-8.64,3-.42,5.91-0.9,8.83-1.53,9-1.92,14.52-7.55,17.1-16.31,2.48-8.41,3.09-17.09,3.14-25.71,0.23-43,0-86,.3-129,0-7.36-3.78-10.92-9.62-13.49-6.31-2.78-13.08-2.62-19.7-2.22-6.09.37-6.24-2.92-6.24-7.41,0-4.19.32-6.86,5.77-6.76,17,0.3,34,.38,51,0,5.52-.14,7.56,3.28,10.11,6.69q30.87,41.19,61.73,82.4,23.38,31.2,46.78,62.37C-544.18,869.89-542.77,871.7-540.84,874.24Z" transform="translate(3317 285)"/><path class="cls-3" d="M-1650.66,872.84q0-17.44,0-34.87c0-21.33,0-42.67-.08-64,0-6.32-.07-12.65-1.35-18.91-3.35-16.43-9.1-21.85-25.9-24-7-.91-7-0.91-6.9-7.73,0.05-6.3,0-6.47,6.8-6.5,24-.08,48,0,72-0.06,3.95,0,7.09-.07,6.9,5.62-0.25,7.49,0,7.73-6.11,8.6-3,.42-5.91.92-8.83,1.54-9,1.93-14.61,7.55-17,16.35-2.93,10.71-3.3,21.71-3.32,32.71q-0.08,71,0,142c0,2,.31,4.06-0.08,6-0.53,2.62,2.08,6.87-2.33,7.55-4,.62-8.73,2-12-2.29-1.61-2.12-3.17-4.29-4.75-6.43q-59.7-80.81-119.42-161.59c-1.86-2.52-3.25-5.61-6.35-7.19-2,2.43-1.2,4.82-1.2,7-0.06,34.67,0,69.33-.05,104a169.29,169.29,0,0,0,1.57,22.92c2.23,16.53,9,23.19,25.61,25.52,2.4,0.34,6-1.08,6.73,2.51a23.93,23.93,0,0,1,0,9.88c-0.66,2.87-3.88,1.8-6,1.81-16.67.08-33.33,0-50,0-8,0-16-.18-24,0.05-4.48.13-5-2.47-4.5-5.71s-2.27-7.91,3.91-8.41c0.33,0,.67,0,1-0.06,21-3.17,26.69-8.93,28.89-30a205.5,205.5,0,0,0,.68-21q0.09-59.5,0-119c0-11.29-4-16.13-15.42-17.8a103.83,103.83,0,0,0-15-.62c-5.41,0-4.43-3.88-4.4-7s-1.28-7,4.28-7q27,0.14,54,0c4.65,0,6,3.68,8.1,6.47q36,47.95,72,96l40.66,54.22Z" transform="translate(3317 285)"/><path class="cls-3" d="M-171,933.25q-42,0-84,0c-9,0-9.61-.95-8.78-9.55,0.34-3.51,2-4.47,5.12-4.42,4.66,0.07,9.34.08,14-.23,10.28-.68,13.2-3.41,13.23-13.46q0.18-80.47,0-160.95c0-10.2-2.87-12.92-13-13.68-3.65-.27-7.33-0.18-11-0.25-8.42-.16-8.35-0.29-8.36-8.21,0-4.15,1.16-6.21,5.61-5.79,2.64,0.25,5.33,0,8,0H-93.22c1.67,0,3.33,0,5,0,8.77,0.09,8.84.09,8.86,8.52q0.06,30,0,60c0,1-.06,2,0,3,0.19,3-.5,5.64-4.19,5.08-3.4-.52-8.49,2.67-9.56-3.87-0.48-3-1.13-5.88-1.8-8.8q-1.46-6.32-3.07-12.6C-103.66,745.7-118,733.44-141,731.47c-15.29-1.31-30.64-1-46-.5-7.67.26-9.73,2.71-10.83,10.37a28.75,28.75,0,0,0-.34,4c0,21,0,42-.15,63,0,4.58,1.21,6.62,6.21,6.49a79.68,79.68,0,0,0,18.79-2.31c9.9-2.7,17-8.83,20.62-18.66,1.76-4.72,3.25-9.59,3.31-14.53,0.07-5.76,3.09-6.35,7.65-6.19,6.58,0.24,6.78.07,6.8,6.57q0.12,43,0,86c0,2.11,1,5.22-2.41,5.59s-7.28,1.27-10.66-.78c-1.34-.81-0.83-2.41-1-3.68-0.46-3.63-.64-7.31-1.33-10.89-3.22-16.77-11-24.13-27.79-26.6l-1-.12c-19.16-2.37-19.16-2.37-19.16,16.77q0,26.49,0,53a64.08,64.08,0,0,0,.42,9c1,7.08,3.82,10.65,10.81,10.88,19.27,0.64,38.67,2.35,57.74-2.09,14.94-3.48,25.36-12.72,31.73-26.6a131.76,131.76,0,0,0,9.21-30.5c0.74-3.89,1.83-6.67,6.93-6.41,6.81,0.35,7.26.2,6.79,7.38-1.47,22.27-3.33,44.51-4.54,66.79-0.33,6.11-3.62,6-7.9,6Q-129,933.19-171,933.25Z" transform="translate(3317 285)"/><path class="cls-3" d="M951.11,919.29a76.16,76.16,0,0,0,7.91-1,9,9,0,0,0,7.35-8.41,86.48,86.48,0,0,0,.3-9q0-76,0-152c0-1.33,0-2.67,0-4-0.35-10.62-2.95-13.31-13.83-14-4-.24-8-0.06-12-0.26-2.16-.11-5.14,1-6-2a18.21,18.21,0,0,1,.18-10.75c0.19-.58,1.68-1,2.6-1,2.32-.17,4.66-0.12,7-0.12h164c1.67,0,3.34.11,5,0,3.93-.3,5.19,1.55,5.13,5.33-0.15,11.33-.05,22.66,0,34,0,10,0,20,0,30,0,3.52,1.06,7.48-5,7.5-6.93,0-7.65-.09-9-5.87-1.5-6.48-2.93-13-4.56-19.43-5.77-22.84-20.55-35.06-43.93-36.85a402.75,402.75,0,0,0-45-.43c-8,.28-10.41,2.81-11,11.22-0.55,7.63-.37,15.32-0.4,23,0,14-.09,28,0,42,0.06,7.52.2,7.69,8,7.44a99.4,99.4,0,0,0,13.87-1.49c13.15-2.29,21.33-10.27,25-22.92a64,64,0,0,0,2.18-11.76c0.33-3.56,1.35-5.24,5.36-5.37,8.56-.27,8.95-0.24,9,8.48q0.06,42,0,84c0,2.11,1.09,5.23-2.29,5.68s-7.28,1.21-10.69-.68c-1.35-.75-0.92-2.37-1.07-3.64-0.44-3.63-.61-7.31-1.3-10.89-3.16-16.54-10.47-23.73-26.72-26.56-20.32-3.53-21.25-2.78-21.25,17.41q0,26,0,52a65.41,65.41,0,0,0,.4,9c1,7.13,3.77,10.71,10.74,10.95,19.28,0.67,38.68,2.38,57.75-2.07,14.11-3.29,24.39-11.69,30.85-24.78,5.06-10.25,7.95-21.15,10.15-32.28,0.76-3.84,1.74-6.73,6.89-6.47,6.84,0.34,7.31.2,6.84,7.33-1.47,22.27-3.33,44.52-4.53,66.81-0.33,6.07-3.54,6-7.86,6-32.66-.06-65.32,0-98-0.05-26-.05-52-0.24-78-0.37-2.2-12.63-2.2-12.62,10.2-12.85C947.25,920,949.26,920.27,951.11,919.29Z" transform="translate(3317 285)"/><path class="cls-3" d="M472.26,829.46c-0.16-30.49,6.95-55,23.05-76.59,41-55,123.12-53.44,162.24,2.91,27,38.84,28.3,95.33,2.36,134.92-22.93,35-56.15,50.74-97.39,45.69-41.51-5.08-68.5-30-83.22-68.56A106.78,106.78,0,0,1,472.26,829.46Z" transform="translate(3317 285)"/><path class="cls-3" d="M-1552,915.7c-3.64,5.37-6.91,10.37-10.36,15.25a11.12,11.12,0,0,1-12.14,4.09,2.87,2.87,0,0,1-2.31-2.74c-0.1-1.33-.13-2.66-0.14-4-0.29-23.65-.61-47.3-0.81-71,0-2.68-1.41-6.19,3.47-6.77,6.17-.74,8.65.19,10,4.79,1.83,6,3,12.34,5.4,18.15,9.7,23.55,24.67,42,50.73,48.16,12.76,3,25.84,3.31,38.52-.61,20.39-6.3,32.33-25.29,28.95-45.38-2.54-15.13-12-24.22-26.18-28.36-13.09-3.81-26.38-6.94-39.6-10.26a279.59,279.59,0,0,1-27.71-8.3c-38.07-13.87-45.08-44.23-34.85-76.52,7.35-23.2,25-35.58,48.52-39.18,23-3.51,44.5.78,62.94,15.81,4.05,3.3,6.08,2.58,8.35-1.54,1.76-3.2,4.09-6.08,5.95-9.23,1.55-2.62,3.69-3.41,6.62-3.46,6.15-.12,6.93.31,7.23,6.39,0.78,16,1.44,31.94,2.12,47.92,0.25,6,.53,12,0.53,18,0,2.32,1.53,5.46-2.63,6.34-5.3,1.12-9.38-.15-10.81-3.91-1.06-2.79-1.75-5.73-2.72-8.55-4.37-12.71-10.57-24.43-19.4-34.63-17.18-19.84-42.66-23.28-62.85-16.9-16.47,5.21-25.09,18.62-24.17,35.89,0.53,10.11,5.47,17.61,13.42,23.37,7.11,5.16,15.22,8.19,23.62,10.42,15.11,4,30.27,7.79,45.38,11.8,4.49,1.19,8.92,2.68,13.28,4.31,22.77,8.49,33.9,25.79,36.49,49.17,1.15,10.33.45,20.65-3.1,30.57-9.73,27.14-30.75,39.12-57.85,42-25.75,2.72-49.75-2.2-70.33-19.13A27,27,0,0,0-1552,915.7Z" transform="translate(3317 285)"/><path class="cls-3" d="M-1367.32,812.08c0-21.67,0-43.33,0-65,0-13.29-2.46-15.73-15.6-16.25-2.66-.11-5.33-0.07-8-0.12-8.47-.16-8.25-0.17-8.29-8.21,0-4.19,1.18-5.84,5.61-5.82,29,0.15,58,.2,87,0,5.75,0,5.43,3.19,5.44,7s0.18,7.36-5.48,7.08a114,114,0,0,0-16,.34c-8.28.76-10.47,3.09-11.36,11.1a54.62,54.62,0,0,0-.22,6c0,34.67-.12,69.33.07,104,0.06,10,.53,20,2.82,29.79,5.31,22.7,17.59,34.77,40.47,38.31a85.79,85.79,0,0,0,33.76-1.14c16.37-4,27.75-13.67,34.4-29.17a86.53,86.53,0,0,0,6.73-33.1c0.48-32.64,1.7-65.31-.91-97.93a68.1,68.1,0,0,0-1.63-8.81c-2.21-10.27-8.74-16.14-18.87-18.2-2.28-.46-4.6-0.71-6.91-1-6.09-.84-6-1.25-6.19-8.57-0.16-5.62,2.93-5.65,6.93-5.64,24.33,0.06,48.67.11,73,0,4.25,0,6.3,1.25,5.68,5.65-0.49,3.5,1.92,8.25-4.92,8.62-20.1,1.06-28.16,9.16-29,32.83-1,27.3-.43,54.65-0.54,82,0,12.36-.91,24.65-3.77,36.7-6.62,28-23.82,45.76-52,51.92a137.58,137.58,0,0,1-66.33-1.54c-30.14-8.23-45.44-28.41-45.92-59.77,0-.67,0-1.33,0-2Q-1367.32,841.58-1367.32,812.08Z" transform="translate(3317 285)"/><path class="cls-3" d="M-770.45,933.25c-13.32,0-26.65.07-40,0-6.64,0-6.64-.18-6.67-6.57,0-7.13,0-7.12,7-7.35,4.66-.15,9.38.11,14-0.6,9.29-1.44,11.53-5.16,8.22-13.74-4.66-12.1-9.87-24-14.48-36.12-1.54-4-3.62-5.64-8-5.61q-34,.28-67.95,0c-4.47,0-6.6,1.51-8,5.58-2.93,8.83-6.67,17.41-9.23,26.34-4,14,2.35,22.6,16.89,24a26.62,26.62,0,0,0,4,.16c8.16-.48,7.94-0.31,8,9.42,0,3.46-1.32,4.73-4.69,4.61-4.32-.16-8.66,0-13,0-18.32,0-36.64-.09-55,0.07-4.34,0-6.79-.58-6.61-5.86,0.25-7.25.14-8.06,6.39-8.09,9.16,0,14.88-4.67,19-12.23,3.84-7,6.75-14.46,9.68-21.89q32.58-82.61,65.16-165.21c3-7.69,3.85-7.79,11.6-7.47,5.79,0.24,5.7,4.84,7.07,8.19q35.93,87.72,71.67,175.51c1.26,3.08,2.69,6.09,3.8,9.22,3.4,9.6,9.57,14.92,20.3,13.87,2.11-.21,5.18-1.08,6.13,1.75a17.06,17.06,0,0,1,0,10.81c-0.68,2-3.52,1.31-5.47,1.31Q-750.46,933.28-770.45,933.25Z" transform="translate(3317 285)"/><path class="cls-3" d="M-289.47,859.49a107.28,107.28,0,0,1-7.83,29.68c-12.55,29-35,44.74-66.09,47.6-65.76,6-106.62-40.48-111.73-95.51-2.95-31.7,3.57-61.07,22.67-86.86,18.08-24.41,41.72-39.71,72.82-41.92a74.56,74.56,0,0,1,49.1,13.28c9.24,6.37,9.37,6.18,15.93-3.43,0.56-.82,1.12-1.65,1.7-2.47,3.24-4.54,12.6-7.14,17.61-4.84,3.33,1.54,1.94,4.64,1.95,7,0.11,24,.07,48,0.07,72,0,0.33,0,.67,0,1-0.2,2.5.75,6.13-3.32,5.84-3.8-.27-9,2.83-11-3.44-2.39-7.26-4.77-14.54-7.34-21.74-3.37-9.43-7.44-18.55-13.73-26.46-15.13-19-35-26-58.56-21.74-16.13,2.91-27.4,13-35.14,27.17-6.31,11.53-9.72,24-11.55,37-4,28.25-4.22,56.4,2.84,84.29a79.58,79.58,0,0,0,6.33,16.77c9.82,19.17,25.66,29.16,47,30.46,7,0.42,14,.55,20.92-0.79q25.92-5,39.84-27.53c5.82-9.45,9.48-19.75,12.08-30.48,1.91-7.86,2-7.85,9.91-6.19C-293.43,858.47-291.85,858.9-289.47,859.49Z" transform="translate(3317 285)"/><path class="cls-3" d="M-1899,933.25c-14,0-28,0-42,0-2.2,0-5.4,1-6.25-1.57a16.41,16.41,0,0,1,.16-10.8c0.65-1.73,2.73-1.5,4.38-1.54,5.66-.13,11.36.07,17-0.51,7.88-.82,10.45-3.65,10.7-11.63,0.27-8.66.1-17.33,0.1-26q0-65,0-130c0-3,.11-6-0.11-9-0.52-7.35-2.93-10.15-10.33-11a111.78,111.78,0,0,0-17-.46c-5.72.25-5.45-3.29-5.47-7.14s-0.25-7,5.45-7q44,0.34,88,0c5.71,0,5.5,3.09,5.46,7s0.39,7.51-5.38,7.13a113.08,113.08,0,0,0-13,.13c-11.67.59-14,2.9-14,14.45q-0.1,68,0,136c0,8.66-.14,17.33.09,26,0.22,8.15,2.53,10.73,10.62,11.54a152.84,152.84,0,0,0,17,.44c6.2-.08,4.39,4.42,4.69,7.73,0.32,3.65,0,6.39-5,6.32C-1869,933.1-1884,933.24-1899,933.25Z" transform="translate(3317 285)"/><path class="cls-4" d="M3747.52,37.31c-30.17-.2-52.59-23.07-52.44-53.48,0.15-30.2,23-53.13,53-53.08,29.64,0.05,52.66,23.58,52.55,53.69C3800.53,14.79,3777.7,37.51,3747.52,37.31Z" transform="translate(3317 285)"/><path class="cls-5" d="M951.11,919.29a7.72,7.72,0,0,1-4.66,1.41c-11.52.7-11.52,0.71-11.37,12.17l-2.17,0c0-.33,0-0.66,0-1,0-10.24,0-10.2-10.38-11.28a15.33,15.33,0,0,1-3.63-1.35A253.28,253.28,0,0,1,951.11,919.29Z" transform="translate(3317 285)"/><path class="cls-6" d="M-1023,827a6.84,6.84,0,0,1-6.6-3.1,5.6,5.6,0,0,1,4.72-.67Z" transform="translate(3317 285)"/><path class="cls-7" d="M379,826.93a10.77,10.77,0,0,1-2.77-.25c-1.44-.52-3.68-1.38-3.33-2.71s2.64-1.21,4.22-.73Z" transform="translate(3317 285)"/><path class="cls-6" d="M1279,827a6.85,6.85,0,0,1-6.6-3.1,5.6,5.6,0,0,1,4.72-.67Z" transform="translate(3317 285)"/><path class="cls-8" d="M-2950.75,498.45c-9.37,12.82-19.07,24.29-25.9,37.71-9.49,18.65-24.06,24.3-46.2,19.13-3.79-.89-4.92-2.73-4.75-6.18,0.1-2,0-4,0-6q0-111.5,0-223c0-2.33.09-4.67,0-7-0.11-2.8,1.16-4.31,3.9-4.74,6.24-1,12.45-2.41,18.73-2.89,6.55-.51,11.5,2.41,14.28,8.73,2.7,6.14,4.21,12.61,5.79,19.07,8.27,33.93,20.89,66,41,94.77,25,35.67,56,64.13,97.29,80A189.81,189.81,0,0,0-2805,518.43c8.4,1.21,8.53,1,10-7.76,12.36-74.58,42.87-140.32,95.26-195.39,3.87-4.06,7.78-8.08,12.77-13.26-12.57-3.2-23.94-6.12-35.31-9-56.15-14.11-112.61-27.07-167.41-46.06-17.3-6-34.44-12.34-50.46-21.45-46.3-26.32-70.87-66.26-74.37-119.08-1.93-29.16,1.2-57.91,10.54-85.76,12.51-37.27,35.76-66,69.93-85.35a238.93,238.93,0,0,1,117.33-31.68c39.83-.34,77,10.2,112,28.83a269.44,269.44,0,0,1,40.3,25.88c5.9,4.64,6.45,4.5,11.54-.77,4.19-4.35,7.25-9.51,10.43-14.61,3.53-5.64,7-11.34,10.92-16.71,9.43-12.92,22.41-15.53,37.35-12.58,4.87,1,6.46,3.52,6.64,8.18,0.62,16.32,1.5,32.62,2.28,48.93q3.8,79.38,7.62,158.76c0.37,7.74.43,7.74-7.37,10-21.6,6.32-27.8,3.73-36.91-16.55-10.23-22.77-19.7-45.9-31.5-67.93-11.35-21.2-23.66-41.77-41.19-58.63-35.79-34.43-78.83-49.81-128.12-48.29-20.8.64-41.1,4.38-60.2,12.9-31.47,14.05-53.16,36.7-58.77,71.68-7.36,45.94,8.91,80.65,50.6,100.32,24.47,11.55,50.45,18.88,76.45,26q72.19,19.83,144.4,39.58c15.28,4.15,29.23,10.21,41.55,20.72,19.46,16.6,42.79,18.67,67,14.66,17.39-2.87,34.33-7.92,52-9.59,42.08-4,81.42,4.7,118.69,24a267.22,267.22,0,0,1,29,17.72c6.57,4.55,13.45,8.65,20,13.25,3.32,2.34,5.29,1.53,7.26-1.55,3.23-5,6.64-10,9.95-15,4.59-7,9.22-13.9,15-19.91,15-15.44,31.11-16,49.57-9.19,2.77,1,4.49,2.64,4.31,5.86-0.13,2.33,0,4.66,0,7q0,113,0,226c0,1.67-.14,3.35,0,5,0.44,4.49-1.33,6.8-6,7.21-6,.52-11.87,1.58-17.83,2.18-8,.81-13.42-3-16.67-10.09-1.8-3.92-3.34-8-4.85-12-9.89-26.5-18.8-53.36-30.11-79.32-11.94-27.41-26.51-53.08-49-73.36-37.44-33.7-81.36-48-131.5-43.94a171.94,171.94,0,0,0-47.53,10.84c-9.33,3.55-9.27,2.1-5.37,11.48a202,202,0,0,1,15.63,86.8c-0.86,20.71-4.06,41.09-10.66,60.81-15.19,45.42-45.13,77.77-87.8,98.79-3.88,1.91-7.85,3.64-11.78,5.45-17.86,8.25-21.85,16.15-18.83,35.72,2.08,13.49,3.67,27.05,5.36,40.6,3.71,29.74,7.07,59.52,13.95,88.76,3,12.64,6.44,25.13,11.43,37.17,18.7,45.07,51.38,74.86,98.28,88.06a233.51,233.51,0,0,0,122.53,1.46c48.06-12.26,82.19-42.31,105-85.79A281.32,281.32,0,0,0-2305,708.93c6.59-19.19,14.73-37.86,19.65-57.6,1-3.94,2.69-4.81,6.2-4.19,9.18,1.62,18.34,3.33,27.57,4.67,5.07,0.73,7,2.74,7.1,8.27A167.94,167.94,0,0,1-2257,725.41c-24.65,61.12-65.14,108-125.46,136.22-25.86,12.09-53.68,17.94-81.93,20.85-54.75,5.65-107.74-1.72-158.06-24.56-76.49-34.71-126.35-93.61-154.5-171.9-11-30.59-16.71-62.3-20-94.52-0.85-8.28-1.89-16.55-2.87-24.81-0.39-3.25-1.56-5.26-5.5-5.6-53.55-4.68-99.83-26.66-141.38-59.77C-2947.75,500.49-2948.87,499.78-2950.75,498.45Z" transform="translate(3317 285)"/><path class="cls-8" d="M899.32,221.26c-0.45-29.16,11.18-52.85,32.86-71.91A179.38,179.38,0,0,1,954.79,133c3.27-2.08,5.36-1.86,7.14,1.62a47.86,47.86,0,0,0,2.74,4.17l126,193.12c1.09,1.67,2.05,3.44,3.29,5,2.52,3.16,1.42,5.21-1.59,7.27-35.23,24.16-72.15,31.49-111.83,11.33-47-23.87-73.27-62.19-79.76-114.32-0.53-4.29-1.06-8.59-1.42-12.9C899.16,225.94,899.32,223.59,899.32,221.26Z" transform="translate(3317 285)"/><path class="cls-8" d="M1023,65.86c-13.23-28.43-26-55.48-30.88-85.39-2.69-16.54-3.38-33.11.88-49.54a74.31,74.31,0,0,1,14.65-29.2c19.73-23.82,54.1-26.56,77.38-6.12,12.57,11,19.56,25.27,21.74,41.57,5.52,41.33-7,75.48-41.36,100.54C1052,47.51,1037.88,56.27,1023,65.86Z" transform="translate(3317 285)"/><path class="cls-8" d="M-1199.24,228.2c-0.56,33.07-5.84,65.07-17.46,95.93a128.36,128.36,0,0,1-10,20.63c-25.62,43-87.5,39.59-113.36,7.5-7.65-9.49-12.92-20.09-16.88-31.48-8-23-12.13-47-18-70.53a68.25,68.25,0,0,1-.26-34.19c5.68-22.55,9.29-45.62,16.27-67.87,3.69-11.78,8.14-23.21,15.57-33.28,26.51-35.9,80.94-40.1,110.35-8.41,8.51,9.17,14.15,20.05,18.31,31.78C-1204.28,167.44-1199.78,197.58-1199.24,228.2Z" transform="translate(3317 285)"/><path class="cls-8" d="M2199.07,261.07c1.33,11.68.63,23.32-.23,35a62.71,62.71,0,0,1-4.08,17.45c-13.73,36.44-57.79,65.58-96.71,64-31-1.24-52.5-20.54-56.79-51.29-1.43-10.26-1.39-20.56,1.23-30.76,4.33-16.91,14.06-29,30.25-36.05,24.78-10.78,50.54-18.66,76.37-26.38,14.33-4.28,28.41-9.43,43.43-11.2,4.75-.56,6.72.13,6.61,5.29C2198.91,238.42,2199.07,249.75,2199.07,261.07Z" transform="translate(3317 285)"/><path class="cls-8" d="M253.07,204.74c-22,0-44,.13-65.92-0.07-8.72-.08-8.67-0.42-8.52-9.07C179,175.49,182,155.85,189,136.94c5.78-15.48,14.1-29.5,25.93-41,20.34-19.84,44.15-28.12,72.12-19,20.37,6.63,33.32,21.33,41.27,40.68,6.52,15.87,8.28,32.82,10.48,49.64,0.56,4.29,1.09,8.58,1.63,12.87,1.86,14.69-5.59,24-20.48,24.25-22.3.39-44.61,0.1-66.91,0.1Q253.07,204.57,253.07,204.74Z" transform="translate(3317 285)"/><path class="cls-8" d="M3171.82,205c-21.63,0-43.25,0-64.88,0-7.76,0-8-.15-7.66-7.6,1.23-26.08,4.89-51.64,17.5-75.08,6.68-12.41,14.87-23.65,25.91-32.58,35.51-28.71,82.7-18.95,104,21.46,6.61,12.54,9.7,26.14,11.74,40,1.4,9.53,2.35,19.15,3,28.77q1.55,24-22.73,24.82c-10.63.4-21.29,0.21-31.93,0.24C3195.11,205,3183.46,205,3171.82,205Z" transform="translate(3317 285)"/><path class="cls-8" d="M-916.62,204.66c-22,0-43.93-.09-65.89.08-4.6,0-6.65-1.14-6.34-6.16,1.65-26.72,5.15-53,18.1-77,6.85-12.7,15.35-24.11,26.88-33,34.42-26.7,79.22-18,101.1,19.68,8,13.8,11.48,29,13.58,44.51,1.2,8.89,2,17.85,2.79,26.79,1.4,15.44-5.66,23.93-21.34,25-8.95.6-18,.32-26.94,0.34-14,0-28,0-41.93,0v-0.17Z" transform="translate(3317 285)"/><path class="cls-8" d="M316.94,773.9c0-10.64-.09-21.27,0-31.91,0.11-9.12,1.5-10.86,10.14-11.07,12-.28,24-0.57,35.88.16,22,1.35,33.66,14,34.25,36.08a110.76,110.76,0,0,1-.21,12c-1.52,18.66-12.44,30.58-30.8,34-14.85,2.74-29.84,1.1-44.76,1.58-4.43.14-4.57-2.65-4.56-5.87C317,797.17,316.94,785.54,316.94,773.9Z" transform="translate(3317 285)"/><path class="cls-8" d="M102.67,870.57c0-11.66.16-23.33-.08-35-0.1-4.76.67-7.3,6.42-7,15.94,0.79,32-1,47.84,2.14,23.55,4.61,33.36,15.6,34.39,39.34a95.27,95.27,0,0,1-.25,15c-1.76,15.33-9.59,25.89-24.77,30.5a62.37,62.37,0,0,1-15.62,3.12c-12,.46-24,0.68-36,0.47-8.48-.15-11.12-3.14-11.81-11.54-0.05-.66-0.07-1.33-0.07-2q0-17.5,0-35h-0.07Z" transform="translate(3317 285)"/><path class="cls-8" d="M102.68,776.42c0-10.33-.12-20.66,0-31s3.35-14.15,13.47-14.48c11.62-.38,23.33-1.22,34.86,1.24,20.65,4.41,30.22,15.58,31.45,36.65a66.13,66.13,0,0,1-2,19.83c-2.8,11.26-10.26,18.46-21.16,22a89.39,89.39,0,0,1-26.58,3.92c-8.33.11-16.66-.11-25,0.14-4.06.12-5.19-1.66-5.16-5.33C102.74,798.41,102.67,787.41,102.68,776.42Z" transform="translate(3317 285)"/><path class="cls-8" d="M1215.83,775.09c0-11.3-.21-22.61.07-33.91,0.2-8.33,1.83-10.06,10.05-10.25,12-.28,24-0.55,35.89.14,20.84,1.21,32.13,12.32,34.51,32.95a62.15,62.15,0,0,1-1.88,23.72c-3.58,13-12.26,21.12-25.18,24.42-16.34,4.18-33.07,2.08-49.64,2.42-3.89.08-3.83-2.9-3.84-5.6,0-11.3,0-22.61,0-33.91h0Z" transform="translate(3317 285)"/><path class="cls-8" d="M-1086.18,774.69c0-11-.18-21.94.06-32.91,0.2-9,1.76-10.66,10.48-10.87,11.63-.27,23.29-0.5,34.89.11,21.71,1.15,33.35,12.82,35.24,34.4a62.93,62.93,0,0,1-1.86,21.76c-3.92,14.72-14,22.88-28.64,25.77-15.15,3-30.5,1.28-45.75,1.71-4.56.13-4.44-3-4.44-6.06q0-17,0-33.91h0Z" transform="translate(3317 285)"/><path class="cls-8" d="M638.66,825.42c0.51,17.39-1,34.59-5.71,51.4a80.4,80.4,0,0,1-9,21c-9.88,15.9-24.28,24.22-42.88,25.28-6.32.36-12.68,0.47-18.94-.71-16.37-3.11-28.63-12-36.8-26.53-6.13-10.88-9.45-22.72-11.22-35-4.14-28.58-4.17-57.07,2.76-85.3,0.71-2.9,1.54-5.79,2.53-8.61,12.37-35.16,41.39-45.81,74.27-38.06,16,3.77,26.42,14.77,33.48,29.19,7.76,15.86,10.17,33,11.46,50.29C639,814.08,638.66,819.76,638.66,825.42Z" transform="translate(3317 285)"/><path class="cls-8" d="M-843.75,764.33q15.57,39.37,31.12,78.75a31.81,31.81,0,0,1,.87,3.49h-66l32-82.27Z" transform="translate(3317 285)"/><path class="cls-9" d="M3789.29-14.89c-0.21,25-17,42.07-41.12,41.75-24.3-.32-41.56-18.23-41.48-43,0.08-25.39,17.08-43.09,41.26-43S3789.51-40.48,3789.29-14.89Z" transform="translate(3317 285)"/><path class="cls-2" d="M-2635.17,347.37c30.1,49.85,12.44,121.21-40,147.5C-2671.13,443-2660.86,393.51-2635.17,347.37Z" transform="translate(3317 285)"/><path class="cls-10" d="M3773.2,8.46c-8,2.85-13.07.74-16.89-5.6-2.39-4-5.52-7.47-8.26-11.23-1.83-2.51-4.4-2.92-7.09-2.29-3.26.76-2.11,3.63-2.23,5.73a66.59,66.59,0,0,0,0,9c0.34,4.45-1.73,5.69-5.88,5.68-4.65,0-4.36-2.95-4.36-6,0-14,.2-27.91-0.09-41.86-0.11-5.41,2.06-6.88,7.06-6.58,6.94,0.42,13.93-.35,20.82,1.38,6,1.5,10.13,4.65,11.69,10.85,1.63,6.51.12,12.34-5.51,15.74-5.17,3.13-4.06,5.55-1.12,9.23C3765.4-2.45,3769.12,2.92,3773.2,8.46Z" transform="translate(3317 285)"/><path class="cls-11" d="M3738.64-27.49c0-7.81,0-7.81,6.32-7.86,9-.08,12.38,2.11,12.3,7.93-0.07,5.61-3.92,8.1-12.49,8.1C3738.65-19.32,3738.65-19.32,3738.64-27.49Z" transform="translate(3317 285)"/></svg>
